<svg width="512" height="512" viewBox="0 0 512 512" fill="none" xmlns="http://www.w3.org/2000/svg">
    <rect width="512" height="512" fill="#1993FF"/>
    <path opacity="0.5" d="M256.489 111C282.983 110.996 306.87 126.953 317.01 151.429C327.151 175.905 321.548 204.08 302.814 222.814C284.08 241.548 255.905 247.151 231.429 237.01C206.953 226.87 190.996 202.983 191 176.489C191.043 140.338 220.338 111.043 256.489 111Z" fill="black"/>
    <path opacity="0.5" d="M378.722 329.98C349.924 368.991 304.386 392.001 255.981 392C208.003 391.269 163.009 368.518 133.898 330.27C125.263 319.56 122.709 305.157 127.133 292.118C136.11 268.667 154.8 250.279 178.355 241.726C185.806 238.778 194.221 239.642 200.922 244.043C233.886 267.38 277.932 267.38 310.896 244.043C317.653 239.621 326.133 238.775 333.627 241.775C357.264 250.415 375.968 268.961 384.849 292.564C389.182 305.278 386.882 319.323 378.722 329.98V329.98Z" fill="black"/>
    </svg>